<?xml version="1.0" standalone="no"?>
<!DOCTYPE svg PUBLIC "-//W3C//DTD SVG 20010904//EN"
 "http://www.w3.org/TR/2001/REC-SVG-20010904/DTD/svg10.dtd">
<svg version="1.0" xmlns="http://www.w3.org/2000/svg"
 width="422.000000pt" height="422.000000pt" viewBox="0 0 422.000000 422.000000"
 preserveAspectRatio="xMidYMid meet">
<metadata>
Created by potrace 1.15, written by Peter Selinger 2001-2017
</metadata>
<g transform="translate(0.000000,422.000000) scale(0.100000,-0.100000)"
fill="#000000" stroke="none">
<path d="M2066 2729 c-21 -16 -26 -29 -26 -64 0 -31 -18 -85 -63 -191 -60
-140 -66 -149 -95 -155 -18 -4 -38 -12 -46 -18 -11 -9 -49 6 -181 76 l-168 88
-14 48 c-15 51 -56 87 -101 87 -56 0 -112 -56 -112 -112 0 -41 36 -86 78 -99
33 -10 45 -9 77 7 l37 17 162 -83 c88 -45 164 -86 167 -89 4 -3 10 -24 13 -46
6 -40 5 -41 -86 -134 l-92 -94 -48 12 c-57 15 -108 3 -151 -37 l-27 -26 -136
55 c-127 50 -138 56 -151 89 -31 74 -102 93 -154 41 -76 -76 8 -192 105 -146
l36 17 127 -52 c71 -29 134 -57 141 -62 6 -6 12 -27 12 -47 0 -20 9 -50 19
-68 l20 -31 -70 -102 c-40 -57 -81 -105 -94 -110 -50 -19 -55 -76 -11 -106 42
-27 86 4 86 59 0 12 31 67 70 123 l69 101 48 -4 c31 -3 62 1 87 11 44 18 37
21 139 -57 69 -53 77 -63 77 -93 0 -82 103 -122 156 -61 13 16 24 34 24 41 0
9 63 29 183 60 101 25 186 46 189 46 3 0 21 -15 40 -34 49 -49 103 -63 164
-43 l47 15 64 -56 c50 -44 63 -62 63 -84 0 -66 84 -102 128 -55 47 50 11 127
-60 127 -23 0 -44 14 -90 58 l-59 57 11 47 c19 76 -21 159 -90 188 l-30 12 0
199 c0 179 2 199 18 208 13 7 48 -11 160 -83 l143 -92 124 -189 c69 -105 125
-200 125 -212 0 -33 35 -48 66 -28 31 20 32 60 3 77 -21 13 -249 349 -249 367
0 5 49 52 108 104 106 94 109 95 150 90 36 -5 45 -2 72 25 49 49 39 116 -21
148 -61 31 -126 -10 -133 -83 -2 -32 -11 -48 -42 -75 -128 -115 -180 -158
-190 -155 -6 1 -67 38 -136 82 -120 76 -126 82 -131 118 -9 67 -69 109 -127
89 -28 -10 -36 -6 -162 91 -121 93 -133 105 -140 142 -14 70 -70 95 -122 54z
m214 -236 c137 -106 140 -109 140 -147 0 -31 7 -45 35 -72 l35 -33 0 -193 0
-194 -36 -17 c-33 -16 -37 -16 -57 0 -13 10 -107 89 -209 176 -177 150 -187
160 -181 187 4 20 -1 41 -16 65 l-21 36 51 122 c69 164 76 177 100 177 11 0
82 -48 159 -107z m-109 -546 l200 -169 -6 -42 c-4 -22 -10 -44 -14 -48 -3 -3
-88 -27 -188 -53 l-182 -46 -30 22 c-24 17 -38 20 -69 15 -37 -5 -45 -2 -123
59 l-84 64 3 56 c2 31 -2 70 -9 86 -12 30 -11 31 84 127 l97 97 60 1 61 0 200
-169z"/>
</g>
</svg>
